<svg width="31" height="31" viewBox="0 0 31 31" fill="none" xmlns="http://www.w3.org/2000/svg">
<path fill-rule="evenodd" clip-rule="evenodd" d="M23.8875 19.4509L29.03 24.5946L27.97 25.6546L22.8162 20.5009C21.0759 21.9359 18.8487 22.6434 16.5993 22.4758C14.3498 22.3082 12.2521 21.2783 10.7437 19.6012C9.2353 17.9241 8.43287 15.7292 8.50385 13.4747C8.57483 11.2201 9.51373 9.08008 11.1246 7.50115C12.7355 5.92221 14.8939 5.02637 17.1494 5.00057C19.4049 4.97477 21.5833 5.82101 23.2299 7.36268C24.8765 8.90436 25.8641 11.0224 25.9866 13.2747C26.1091 15.527 25.3571 17.7397 23.8875 19.4509ZM24.5 13.7496C24.5 11.8268 23.7362 9.98272 22.3765 8.62308C21.0169 7.26344 19.1728 6.4996 17.25 6.4996C15.3272 6.4996 13.4831 7.26344 12.1235 8.62308C10.7638 9.98272 9.99999 11.8268 9.99999 13.7496C9.99999 15.6724 10.7638 17.5165 12.1235 18.8761C13.4831 20.2358 15.3272 20.9996 17.25 20.9996C19.1728 20.9996 21.0169 20.2358 22.3765 18.8761C23.7362 17.5165 24.5 15.6724 24.5 13.7496Z" fill="black"/>
<path d="M1 8.99963H7" stroke="black"/>
<path d="M1 14.4996H5" stroke="black"/>
<path d="M1 19.9996H7" stroke="black"/>
</svg>
