<svg width="25" height="25" viewBox="0 0 25 25" fill="none" xmlns="http://www.w3.org/2000/svg">
<path d="M21.875 12.4999C21.875 12.7071 21.7927 12.9059 21.6462 13.0524C21.4997 13.1989 21.301 13.2812 21.0938 13.2812H5.792L11.4902 18.9785C11.5628 19.051 11.6204 19.1372 11.6597 19.2321C11.699 19.3269 11.7192 19.4285 11.7192 19.5312C11.7192 19.6338 11.699 19.7355 11.6597 19.8303C11.6204 19.9252 11.5628 20.0113 11.4902 20.0839C11.4177 20.1565 11.3315 20.2141 11.2366 20.2534C11.1418 20.2927 11.0402 20.3129 10.9375 20.3129C10.8349 20.3129 10.7332 20.2927 10.6384 20.2534C10.5435 20.2141 10.4574 20.1565 10.3848 20.0839L3.35352 13.0527C3.28088 12.9801 3.22326 12.894 3.18394 12.7991C3.14463 12.7043 3.12439 12.6026 3.12439 12.4999C3.12439 12.3973 3.14463 12.2956 3.18394 12.2008C3.22326 12.1059 3.28088 12.0198 3.35352 11.9472L10.3848 4.91596C10.5314 4.76937 10.7302 4.68701 10.9375 4.68701C11.1448 4.68701 11.3436 4.76937 11.4902 4.91596C11.6368 5.06256 11.7192 5.26138 11.7192 5.4687C11.7192 5.67601 11.6368 5.87484 11.4902 6.02143L5.792 11.7187H21.0938C21.301 11.7187 21.4997 11.801 21.6462 11.9475C21.7927 12.094 21.875 12.2927 21.875 12.4999Z" fill="black"/>
</svg>
