<svg width="20" height="20" viewBox="0 0 20 20" fill="none" xmlns="http://www.w3.org/2000/svg">
<path fill-rule="evenodd" clip-rule="evenodd" d="M4.33753 4.33749C4.51331 4.16193 4.75159 4.06332 5.00003 4.06332C5.24847 4.06332 5.48675 4.16193 5.66253 4.33749L10 8.67499L14.3375 4.33749C14.4234 4.24539 14.5269 4.17151 14.6419 4.12027C14.7569 4.06903 14.881 4.04148 15.0069 4.03925C15.1328 4.03703 15.2578 4.06019 15.3745 4.10734C15.4913 4.15449 15.5973 4.22467 15.6863 4.3137C15.7754 4.40272 15.8455 4.50876 15.8927 4.6255C15.9398 4.74223 15.963 4.86727 15.9608 4.99315C15.9585 5.11903 15.931 5.24317 15.8798 5.35817C15.8285 5.47317 15.7546 5.57667 15.6625 5.66249L11.325 9.99999L15.6625 14.3375C15.7546 14.4233 15.8285 14.5268 15.8798 14.6418C15.931 14.7568 15.9585 14.881 15.9608 15.0068C15.963 15.1327 15.9398 15.2578 15.8927 15.3745C15.8455 15.4912 15.7754 15.5973 15.6863 15.6863C15.5973 15.7753 15.4913 15.8455 15.3745 15.8926C15.2578 15.9398 15.1328 15.963 15.0069 15.9607C14.881 15.9585 14.7569 15.931 14.6419 15.8797C14.5269 15.8285 14.4234 15.7546 14.3375 15.6625L10 11.325L5.66253 15.6625C5.48481 15.8281 5.24975 15.9182 5.00688 15.914C4.764 15.9097 4.53227 15.8113 4.3605 15.6395C4.18874 15.4678 4.09035 15.236 4.08606 14.9931C4.08178 14.7503 4.17193 14.5152 4.33753 14.3375L8.67503 9.99999L4.33753 5.66249C4.16197 5.48671 4.06335 5.24843 4.06335 4.99999C4.06335 4.75156 4.16197 4.51328 4.33753 4.33749Z" fill="black"/>
</svg>
