<svg width="28" height="26" viewBox="0 0 28 26" fill="none" xmlns="http://www.w3.org/2000/svg">
<rect x="3.5" y="3" width="20" height="20" stroke="black" stroke-width="1.2"/>
<path d="M10.0333 11.6833L9.99999 11.7167L9.96332 11.6833C8.37999 10.2467 7.33332 9.29667 7.33332 8.33333C7.33332 7.66667 7.83332 7.16667 8.49999 7.16667C9.01332 7.16667 9.51332 7.5 9.68999 7.95333H10.31C10.4867 7.5 10.9867 7.16667 11.5 7.16667C12.1667 7.16667 12.6667 7.66667 12.6667 8.33333C12.6667 9.29667 11.62 10.2467 10.0333 11.6833ZM11.5 6.5C10.92 6.5 10.3633 6.77 9.99999 7.19333C9.63666 6.77 9.07999 6.5 8.49999 6.5C7.47332 6.5 6.66666 7.30333 6.66666 8.33333C6.66666 9.59 7.79999 10.62 9.51666 12.1767L9.99999 12.6167L10.4833 12.1767C12.2 10.62 13.3333 9.59 13.3333 8.33333C13.3333 7.30333 12.5267 6.5 11.5 6.5Z" fill="black"/>
<path d="M6.5 15L20.5 15" stroke="black" stroke-width="1.2"/>
<path d="M6.5 18.5H16.5" stroke="black" stroke-width="1.2"/>
</svg>
