<svg width="26" height="26" viewBox="0 0 26 26" fill="none" xmlns="http://www.w3.org/2000/svg">
<path d="M3.5 11.0976L3.5 11.0972C3.49993 11.0019 3.52148 10.9079 3.5628 10.8226C3.60411 10.7373 3.664 10.6631 3.73757 10.6053C3.73757 10.6053 3.73758 10.6053 3.73758 10.6053L12.6265 3.62952L12.318 3.23644L12.6265 3.62952C12.7338 3.5453 12.8652 3.5 13 3.5C13.1348 3.5 13.2662 3.5453 13.3735 3.62952L13.682 3.23644L13.3735 3.62952L22.2624 10.6053C22.336 10.6631 22.3959 10.7373 22.4372 10.8226C22.4785 10.9079 22.5001 11.0019 22.5 11.0972V11.0976V22.879C22.5 23.0451 22.4346 23.2036 22.3195 23.3197C22.2045 23.4357 22.0495 23.5 21.8889 23.5H4.11111C3.95047 23.5 3.7955 23.4357 3.68055 23.3197C3.56545 23.2036 3.5 23.0451 3.5 22.879L3.5 11.0976Z" stroke="black"/>
</svg>
