<svg width="16" height="18" viewBox="0 0 16 18" fill="none" xmlns="http://www.w3.org/2000/svg">
<path d="M13.1371 17.28C12.1571 18.23 11.0871 18.08 10.0571 17.63C8.96708 17.17 7.96708 17.15 6.81708 17.63C5.37708 18.25 4.61708 18.07 3.75708 17.28C-1.12292 12.25 -0.402922 4.59 5.13708 4.31C6.48708 4.38 7.42708 5.05 8.21708 5.11C9.39708 4.87 10.5271 4.18 11.7871 4.27C13.2971 4.39 14.4371 4.99 15.1871 6.07C12.0671 7.94 12.8071 12.05 15.6671 13.2C15.0971 14.7 14.3571 16.19 13.1271 17.29L13.1371 17.28ZM8.11708 4.25C7.96708 2.02 9.77708 0.18 11.8571 0C12.1471 2.58 9.51708 4.5 8.11708 4.25Z" fill="black"/>
</svg>
