<svg width="28" height="27" viewBox="0 0 28 27" fill="none" xmlns="http://www.w3.org/2000/svg">
<path d="M16.5 2.58625C16.5 1.71 15.79 1 14.9137 1H13.0875C12.21 1 11.5 1.71 11.5 2.58625C11.5 3.30875 11.005 3.92875 10.3312 4.19375C10.2246 4.23708 10.1192 4.28125 10.015 4.32625C9.35125 4.61375 8.5625 4.52625 8.05 4.015C7.75239 3.71807 7.34915 3.55131 6.92875 3.55131C6.50835 3.55131 6.10511 3.71807 5.8075 4.015L4.515 5.3075C4.21807 5.60511 4.05131 6.00835 4.05131 6.42875C4.05131 6.84915 4.21807 7.25239 4.515 7.55C5.0275 8.0625 5.115 8.85 4.825 9.515C4.77945 9.61966 4.73569 9.72509 4.69375 9.83125C4.42875 10.505 3.80875 11 3.08625 11C2.21 11 1.5 11.71 1.5 12.5863V14.4137C1.5 15.29 2.21 16 3.08625 16C3.80875 16 4.42875 16.495 4.69375 17.1688C4.73708 17.2754 4.78083 17.3808 4.825 17.485C5.11375 18.1487 5.02625 18.9375 4.515 19.45C4.21807 19.7476 4.05131 20.1508 4.05131 20.5712C4.05131 20.9917 4.21807 21.3949 4.515 21.6925L5.8075 22.985C6.10511 23.2819 6.50835 23.4487 6.92875 23.4487C7.34915 23.4487 7.75239 23.2819 8.05 22.985C8.5625 22.4725 9.35 22.385 10.015 22.6738C10.1192 22.7196 10.2246 22.7637 10.3312 22.8062C11.005 23.0712 11.5 23.6913 11.5 24.4138C11.5 25.29 12.21 26 13.0863 26H14.9137C15.79 26 16.5 25.29 16.5 24.4138C16.5 23.6913 16.995 23.0713 17.6688 22.805C17.7754 22.7633 17.8808 22.72 17.985 22.675C18.6487 22.385 19.4375 22.4737 19.9488 22.985C20.2464 23.2823 20.6499 23.4493 21.0706 23.4493C21.4913 23.4493 21.8948 23.2823 22.1925 22.985L23.485 21.6925C23.7819 21.3949 23.9487 20.9917 23.9487 20.5712C23.9487 20.1508 23.7819 19.7476 23.485 19.45C22.9725 18.9375 22.885 18.15 23.1738 17.485C23.2196 17.3808 23.2637 17.2754 23.3062 17.1688C23.5712 16.495 24.1913 16 24.9138 16C25.79 16 26.5 15.29 26.5 14.4137V12.5875C26.5 11.7113 25.79 11.0013 24.9138 11.0013C24.1913 11.0013 23.5713 10.5062 23.305 9.8325C23.2631 9.72634 23.2193 9.62091 23.1738 9.51625C22.8863 8.8525 22.9737 8.06375 23.485 7.55125C23.7819 7.25364 23.9487 6.8504 23.9487 6.43C23.9487 6.0096 23.7819 5.60636 23.485 5.30875L22.1925 4.01625C21.8949 3.71932 21.4917 3.55256 21.0712 3.55256C20.6508 3.55256 20.2476 3.71932 19.95 4.01625C19.4375 4.52875 18.65 4.61625 17.985 4.3275C17.8803 4.28153 17.7749 4.23736 17.6688 4.195C16.995 3.92875 16.5 3.3075 16.5 2.58625Z" stroke="black" stroke-width="2"/>
<path d="M19 13.5C19 14.8261 18.4732 16.0979 17.5355 17.0355C16.5979 17.9732 15.3261 18.5 14 18.5C12.6739 18.5 11.4021 17.9732 10.4645 17.0355C9.52678 16.0979 9 14.8261 9 13.5C9 12.1739 9.52678 10.9021 10.4645 9.96447C11.4021 9.02678 12.6739 8.5 14 8.5C15.3261 8.5 16.5979 9.02678 17.5355 9.96447C18.4732 10.9021 19 12.1739 19 13.5Z" stroke="black" stroke-width="2"/>
</svg>
