<svg width="26" height="25" viewBox="0 0 26 25" fill="none" xmlns="http://www.w3.org/2000/svg">
<path d="M22.6154 3.26087H19.2837L17.6454 0.483696C17.5577 0.334989 17.4388 0.213048 17.2994 0.128676C17.16 0.0443046 17.0043 0.000107344 16.8462 0H9.15385C8.99571 0.000107344 8.84003 0.0443046 8.70061 0.128676C8.56119 0.213048 8.44233 0.334989 8.35457 0.483696L6.71514 3.26087H3.38462C2.61957 3.26087 1.88585 3.60442 1.34488 4.21596C0.803914 4.82749 0.5 5.6569 0.5 6.52174V21.7391C0.5 22.604 0.803914 23.4334 1.34488 24.0449C1.88585 24.6564 2.61957 25 3.38462 25H22.6154C23.3804 25 24.1141 24.6564 24.6551 24.0449C25.1961 23.4334 25.5 22.604 25.5 21.7391V6.52174C25.5 5.6569 25.1961 4.82749 24.6551 4.21596C24.1141 3.60442 23.3804 3.26087 22.6154 3.26087ZM23.5769 21.7391C23.5769 22.0274 23.4756 22.3039 23.2953 22.5077C23.115 22.7116 22.8704 22.8261 22.6154 22.8261H3.38462C3.1296 22.8261 2.88503 22.7116 2.70471 22.5077C2.52438 22.3039 2.42308 22.0274 2.42308 21.7391V6.52174C2.42308 6.23346 2.52438 5.95699 2.70471 5.75314C2.88503 5.5493 3.1296 5.43478 3.38462 5.43478H7.23077C7.38911 5.4349 7.54503 5.39081 7.68467 5.30643C7.82432 5.22205 7.94337 5.09999 8.03125 4.95109L9.66827 2.17391H16.3305L17.9688 4.95109C18.0566 5.09999 18.1757 5.22205 18.3153 5.30643C18.455 5.39081 18.6109 5.4349 18.7692 5.43478H22.6154C22.8704 5.43478 23.115 5.5493 23.2953 5.75314C23.4756 5.95699 23.5769 6.23346 23.5769 6.52174V21.7391ZM13 7.6087C11.954 7.6087 10.9316 7.95931 10.0619 8.61621C9.1922 9.27311 8.51437 10.2068 8.1141 11.2992C7.71383 12.3916 7.6091 13.5936 7.81316 14.7533C8.01721 15.9129 8.52089 16.9782 9.26049 17.8142C10.0001 18.6503 10.9424 19.2197 11.9683 19.4503C12.9941 19.681 14.0575 19.5626 15.0238 19.1101C15.9901 18.6577 16.8161 17.8914 17.3972 16.9083C17.9783 15.9252 18.2885 14.7693 18.2885 13.587C18.2869 12.002 17.7292 10.4824 16.7377 9.36167C15.7463 8.24092 14.4021 7.61049 13 7.6087ZM13 17.3913C12.3344 17.3913 11.6837 17.1682 11.1303 16.7502C10.5769 16.3321 10.1455 15.738 9.89079 15.0428C9.63607 14.3477 9.56943 13.5827 9.69928 12.8448C9.82913 12.1068 10.1497 11.4289 10.6203 10.8969C11.091 10.3648 11.6906 10.0025 12.3434 9.85571C12.9963 9.70892 13.6729 9.78426 14.2879 10.0722C14.9028 10.3601 15.4284 10.8478 15.7982 11.4734C16.168 12.099 16.3654 12.8345 16.3654 13.587C16.3654 14.5959 16.0108 15.5636 15.3797 16.277C14.7486 16.9905 13.8926 17.3913 13 17.3913Z" fill="black"/>
</svg>
